<?xml version="1.0" encoding="UTF-8"?><svg id="Layer_1" xmlns="http://www.w3.org/2000/svg" viewBox="0 0 67.81 67.96"><defs><style>.cls-1{fill:#405fff;}</style></defs><path class="cls-1" d="M66.59,31.39C56.57,21.39,46.56,11.37,36.55,1.37c-1.82-1.82-3.48-1.82-5.3,0C21.26,11.35,11.27,21.33,1.29,31.32c-.29,.29-.57,.61-.8,.96-.81,1.26-.6,2.95,.46,3.9,1.18,1.06,2.76,1.13,4,.18,.35-.27,.67-.59,1.15-1.02,0,8.18,0,16.18,0,24.17,0,5.16,3.31,8.45,8.49,8.46,3.2,0,6.4,0,9.6,0v-11.18c0-3.81,3.12-6.93,6.93-6.93h5.97c3.81,0,6.93,3.12,6.93,6.93v11.18c3.06,0,6.12,0,9.19,0,.87,0,1.74-.07,2.58-.3,3.67-.99,5.9-3.96,5.9-7.96,.02-7.76,0-15.51,0-23.27v-1.13c.45,.42,.74,.72,1.07,.97,.68,.53,1.43,.85,2.31,.71,1.28-.2,2.2-.89,2.58-2.13,.42-1.37-.07-2.49-1.07-3.48Z"/></svg>