<?xml version="1.0" encoding="utf-8"?>
<!-- Generator: Adobe Illustrator 26.3.1, SVG Export Plug-In . SVG Version: 6.00 Build 0)  -->
<svg version="1.1" id="Layer_1" xmlns="http://www.w3.org/2000/svg" xmlns:xlink="http://www.w3.org/1999/xlink" x="0px" y="0px"
	 viewBox="0 0 698.6 232.9" style="enable-background:new 0 0 698.6 232.9;" xml:space="preserve">
<style type="text/css">
	.st0{fill:#405FFF;}
</style>
<g>
	<path class="st0" d="M82.7,72.3v2.9c0,17.2-5.1,27.4-17.5,31.6v0.4c14.6,4.4,20.8,15.9,20.8,36.2v5.3c0,25.4-13.7,39.1-38.9,39.1
		H12.6V33.2h32.7C69.6,33.2,82.7,46.9,82.7,72.3z M36,54.8V97h7.3c11.3,0,15.9-5.7,15.9-18.8v-5.1c0-12.6-4.6-18.3-14.8-18.3H36z
		 M36,118.7v47.5h10.2c11.3,0,16.4-6,16.4-19v-8.6c0-13.7-5.1-19.9-17.5-19.9C45.1,118.7,36,118.7,36,118.7z"/>
	<path class="st0" d="M179.5,187.9h-23.9l-5.1-35.1h-25.9l-5.1,35.1H96.1l26.7-154.7h29.8L179.5,187.9z M137.2,66.3l-9.5,65.2h19.7
		l-9.5-65.2H137.2z"/>
	<path class="st0" d="M258.8,65.6v4l-22.5,2.2v-5.7c0-8.8-4.2-13.5-11.9-13.5s-11.9,4.6-11.9,13.5v2c0,9.1,4,16.8,19.7,30.1
		c21.4,18.1,29.4,30.9,29.4,49.5v7.7c0,22.1-13,34.7-36.2,34.7S189,177.5,189,155.4V145l22.5-2.2v11c0,9.7,4.4,14.6,13.3,14.6
		s13.3-4.9,13.3-14.6v-5.1c0-9.7-4.6-17.5-20.3-30.7C196.3,99.9,189,87.1,189,69v-3.3c0-22.1,12.6-34.7,34.9-34.7
		S258.8,43.5,258.8,65.6z"/>
	<path class="st0" d="M324.7,94.6l32.5,93.3h-25l-23-67.6L299,140.1v47.7h-23.4V33.2H299v64.5h0.4L332,33.2h24.5L324.7,94.6z"/>
	<path class="st0" d="M433.4,55.3h-25v132.6H385V55.3h-25V33.2h73.4V55.3z"/>
	<path class="st0" d="M514.3,54.8h-42.4v43.8h34.3v21.7h-34.3v46h42.4V188h-65.9V33.2h65.9V54.8z"/>
	<path class="st0" d="M600,54.8h-42.4v43.8h34.3v21.7h-34.3v46H600V188h-65.9V33.2H600V54.8z"/>
	<path class="st0" d="M672.7,187.9l-18.6-65.4h-10.8v65.4h-23.4V33.2h33.8c25.2,0,38.9,13.7,38.9,39.1v11.1c0,16.4-5.7,27.8-16.6,34
		l21.4,70.5H672.7z M643.4,54.8v46h9.5c11.3,0,16.4-6,16.4-19v-8c0-13-5.1-19-16.4-19C652.9,54.8,643.4,54.8,643.4,54.8z"/>
</g>
</svg>
