<?xml version="1.0" encoding="utf-8"?>
<!-- Generator: Adobe Illustrator 26.3.1, SVG Export Plug-In . SVG Version: 6.00 Build 0)  -->
<svg version="1.1" id="Layer_1" xmlns="http://www.w3.org/2000/svg" xmlns:xlink="http://www.w3.org/1999/xlink" x="0px" y="0px"
	 viewBox="0 0 100 100" style="enable-background:new 0 0 100 100;" xml:space="preserve">
<style type="text/css">
	.st0{fill:#D2D2D2;}
	.st1{fill:#405FFF;}
</style>
<g>
	<path class="st0" d="M525.2,2266.2c-5-0.1-9.6-0.5-14.1-2.2c-1.6-0.6-3.1-1.4-4.4-2.6c-0.9-0.9-1.5-1.9-1.4-3.2
		c0-1.1,0.1-2.3,0-3.4c-0.2-2.3,0.9-3.7,2.7-4.8c2.4-1.5,5-2.3,7.7-2.9c6.9-1.4,13.7-1.4,20.5,0.3c2.8,0.7,5.5,1.7,7.6,3.8
		c0.7,0.7,1.2,1.6,1.2,2.7c0,1,0,2.1,0.1,3.1c0.2,2.6-1,4.3-3,5.6c-2.1,1.3-4.4,2-6.7,2.5C531.9,2265.9,528.4,2266,525.2,2266.2z"/>
	<path class="st0" d="M548.1,2285.4c-0.1-1,0-2.1-0.2-3c-0.2-1-0.1-1.9,0-2.8c0.3-2.7,0.5-5.4-0.2-8.1c0-0.1-0.1-0.3-0.1-0.4
		c0.2-1.4,0.5-2.8,0.7-4.4c1.1-0.1,2.3-0.4,3.6-0.4c4.9-0.3,9.7-0.1,14.5,1.1c2.4,0.6,4.7,1.4,6.8,2.7c1.7,1.1,2.9,2.6,2.6,4.8
		c-0.1,0.9-0.1,1.8,0,2.6c0.2,2.1-0.9,3.5-2.5,4.6c-2.5,1.7-5.4,2.6-8.3,3.1c-5.4,1-10.9,1.1-16.4,0.4
		C548.4,2285.5,548.3,2285.5,548.1,2285.4z"/>
	<path class="st0" d="M505.3,2264.2c2.4,1.8,5,2.8,7.6,3.5c4.1,1.1,8.2,1.5,12.4,1.5c4.4,0,8.7-0.5,13-1.8c2.2-0.7,4.4-1.5,6.3-2.9
		c0.1-0.1,0.2-0.1,0.4-0.2c0,1.7,0.2,3.3,0,4.9c-0.2,1.4-1.4,2.3-2.5,3.1c-2.5,1.7-5.4,2.6-8.4,3.1c-6.9,1.3-13.8,1.2-20.6-0.7
		c-2.4-0.7-4.7-1.6-6.6-3.3c-1-0.9-1.6-1.9-1.5-3.3C505.3,2266.8,505.3,2265.6,505.3,2264.2z"/>
	<path class="st0" d="M544.9,2274.2c0,1.6,0.1,3.1,0,4.6c-0.1,1.4-1,2.3-2,3.1c-2.1,1.7-4.7,2.6-7.3,3.2c-7.1,1.6-14.2,1.5-21.3-0.1
		c-2.8-0.7-5.6-1.6-7.8-3.8c-0.8-0.8-1.2-1.7-1.2-2.8c0-1.3,0-2.7,0-3.9c1.8,0.9,3.6,1.8,5.4,2.5c4.8,1.8,9.8,2.3,14.9,2.2
		c4.4,0,8.7-0.6,13-1.9C540.8,2276.7,542.9,2275.7,544.9,2274.2z"/>
	<path class="st0" d="M505.4,2294.3c2.4,1.8,5.1,2.9,7.9,3.6c3.9,1,7.8,1.4,11.9,1.4c5.4,0,10.7-0.7,15.7-2.7
		c1.4-0.6,2.7-1.4,4.1-2.1c0,1.5,0.2,3.2-0.1,4.8c-0.2,1.6-1.6,2.6-3,3.4c-2.5,1.6-5.3,2.3-8.2,2.8c-6.5,1.2-13,1.1-19.4-0.5
		c-2.6-0.6-5.2-1.5-7.3-3.4c-1-0.9-1.6-2-1.5-3.5C505.5,2296.9,505.4,2295.7,505.4,2294.3z"/>
	<path class="st0" d="M505.3,2304.3c2.4,1.7,5,2.8,7.7,3.5c4.8,1.3,9.7,1.7,14.7,1.5c4.7-0.2,9.4-1.1,13.7-3
		c1.2-0.5,2.2-1.2,3.3-1.8c0,1.6,0.2,3.3-0.1,4.9c-0.2,1.4-1.4,2.4-2.6,3.1c-2.6,1.7-5.6,2.5-8.6,3.1c-6.5,1.2-12.9,1-19.3-0.5
		c-2.6-0.6-5.1-1.5-7.2-3.3c-1.2-1-1.9-2.1-1.8-3.7C505.3,2306.8,505.3,2305.6,505.3,2304.3z"/>
	<path class="st0" d="M505.4,2284.2c4.9,3.3,10.3,4.5,15.9,4.9c5.9,0.4,11.6,0.1,17.3-1.7c2.2-0.7,4.3-1.7,6.3-3.2
		c0,0.3,0.1,0.4,0.1,0.6c0,0.9-0.1,1.9,0,2.8c0.2,1.9-0.8,3.2-2.2,4.3c-2.1,1.6-4.6,2.4-7.2,3c-7.1,1.6-14.2,1.6-21.3,0
		c-2.7-0.6-5.4-1.6-7.5-3.6c-0.9-0.9-1.5-1.8-1.4-3.1C505.5,2287,505.4,2285.7,505.4,2284.2z"/>
	<path class="st0" d="M544.1,2314.8c2.2-1.5,3.7-3.3,3.8-5.9c2.6,0.2,5,0.4,7.5,0.5c4.9,0.1,9.9-0.4,14.5-2.2
		c1.8-0.7,3.4-1.7,5.2-2.6c0.1-0.1,0.3-0.2,0.4-0.3c0,1.7,0.2,3.4-0.1,5c-0.3,1.8-1.8,2.8-3.3,3.6c-2.9,1.5-6,2.4-9.3,2.8
		c-6.1,0.9-12.1,0.8-18.1-0.8C544.6,2314.9,544.5,2314.9,544.1,2314.8z"/>
	<path class="st0" d="M548.1,2305.7c-0.3-1.5-0.5-2.9-0.7-4.3c0-0.3,0.2-0.6,0.2-1c0.1-0.5,0.2-1,0.3-1.6c0.7,0.1,1.5,0.1,2.2,0.2
		c6.9,0.6,13.8,0.3,20.4-2.1c1.7-0.6,3.3-1.6,5-2.4c0,0,0,0.2,0,0.4c0,0.9-0.1,1.8,0,2.7c0.2,2.1-0.9,3.5-2.5,4.6
		c-2.5,1.8-5.4,2.6-8.3,3.2c-5.4,1.1-10.8,1.1-16.2,0.3C548.4,2305.8,548.2,2305.7,548.1,2305.7z"/>
	<path class="st0" d="M575.5,2284c0,1.7,0.2,3.4-0.1,5c-0.3,1.7-1.7,2.7-3.2,3.5c-2.6,1.5-5.4,2.2-8.2,2.7c-5.1,0.9-10.3,1-15.5,0.3
		c-0.2,0-0.4-0.1-0.7-0.2c0-0.8,0.2-1.7,0-2.4c-0.4-1.4-0.3-2.7,0.1-4c0-0.1,0-0.1,0-0.2C557.6,2289.8,567,2289.6,575.5,2284z"/>
</g>
<g>
	<path class="st1" d="M34.5,35.1c-5-0.1-9.6-0.5-14.1-2.2c-1.6-0.6-3.1-1.4-4.4-2.6c-0.9-0.9-1.5-1.9-1.4-3.2c0-1.1,0.1-2.3,0-3.4
		c-0.2-2.3,0.9-3.7,2.7-4.8c2.4-1.5,5-2.3,7.7-2.9c6.9-1.4,13.7-1.4,20.5,0.3c2.8,0.7,5.5,1.7,7.6,3.8c0.7,0.7,1.2,1.6,1.2,2.7
		c0,1,0,2.1,0.1,3.1c0.2,2.6-1,4.3-3,5.6c-2.1,1.3-4.4,2-6.7,2.5C41.2,34.8,37.7,34.9,34.5,35.1z"/>
	<path class="st1" d="M57.4,54.4c-0.1-1,0-2.1-0.2-3c-0.2-1-0.1-1.9,0-2.8c0.3-2.7,0.5-5.4-0.2-8.1c0-0.1-0.1-0.3-0.1-0.4
		c0.2-1.4,0.5-2.8,0.7-4.4c1.1-0.1,2.3-0.4,3.6-0.4c4.9-0.3,9.7-0.1,14.5,1.1c2.4,0.6,4.7,1.4,6.8,2.7c1.7,1.1,2.9,2.6,2.6,4.8
		c-0.1,0.9-0.1,1.8,0,2.6c0.2,2.1-0.9,3.5-2.5,4.6c-2.5,1.7-5.4,2.6-8.3,3.1c-5.4,1-10.9,1.1-16.4,0.4
		C57.7,54.4,57.6,54.4,57.4,54.4z"/>
	<path class="st1" d="M14.6,33.1c2.4,1.8,5,2.8,7.6,3.5c4.1,1.1,8.2,1.5,12.4,1.5c4.4,0,8.7-0.5,13-1.8c2.2-0.7,4.4-1.5,6.3-2.9
		c0.1-0.1,0.2-0.1,0.4-0.2c0,1.7,0.2,3.3,0,4.9c-0.2,1.4-1.4,2.3-2.5,3.1c-2.5,1.7-5.4,2.6-8.4,3.1c-6.9,1.3-13.8,1.2-20.6-0.7
		c-2.4-0.7-4.7-1.6-6.6-3.3c-1-0.9-1.6-1.9-1.5-3.3C14.6,35.7,14.6,34.5,14.6,33.1z"/>
	<path class="st1" d="M54.2,43.1c0,1.6,0.1,3.1,0,4.6c-0.1,1.4-1,2.3-2,3.1c-2.1,1.7-4.7,2.6-7.3,3.2c-7.1,1.6-14.2,1.5-21.3-0.1
		c-2.8-0.7-5.6-1.6-7.8-3.8c-0.8-0.8-1.2-1.7-1.2-2.8c0-1.3,0-2.7,0-3.9c1.8,0.9,3.6,1.8,5.4,2.5c4.8,1.8,9.8,2.3,14.9,2.2
		c4.4,0,8.7-0.6,13-1.9C50.1,45.6,52.2,44.6,54.2,43.1z"/>
	<path class="st1" d="M14.7,63.2c2.4,1.8,5.1,2.9,7.9,3.6c3.9,1,7.8,1.4,11.9,1.4c5.4,0,10.7-0.7,15.7-2.7c1.4-0.6,2.7-1.4,4.1-2.1
		c0,1.5,0.2,3.2-0.1,4.8c-0.2,1.6-1.6,2.6-3,3.4c-2.5,1.6-5.3,2.3-8.2,2.8c-6.5,1.2-13,1.1-19.4-0.5c-2.6-0.6-5.2-1.5-7.3-3.4
		c-1-0.9-1.6-2-1.5-3.5C14.8,65.8,14.7,64.6,14.7,63.2z"/>
	<path class="st1" d="M14.6,73.2c2.4,1.7,5,2.8,7.7,3.5C27.1,78,32,78.4,37,78.2c4.7-0.2,9.4-1.1,13.7-3c1.2-0.5,2.2-1.2,3.3-1.8
		c0,1.6,0.2,3.3-0.1,4.9c-0.2,1.4-1.4,2.4-2.6,3.1c-2.6,1.7-5.6,2.5-8.6,3.1c-6.5,1.2-12.9,1-19.3-0.5c-2.6-0.6-5.1-1.5-7.2-3.3
		c-1.2-1-1.9-2.1-1.8-3.7C14.6,75.7,14.6,74.5,14.6,73.2z"/>
	<path class="st1" d="M14.7,53.1c4.9,3.3,10.3,4.5,15.9,4.9c5.9,0.4,11.6,0.1,17.3-1.7c2.2-0.7,4.3-1.7,6.3-3.2
		c0,0.3,0.1,0.4,0.1,0.6c0,0.9-0.1,1.9,0,2.8c0.2,1.9-0.8,3.2-2.2,4.3c-2.1,1.6-4.6,2.4-7.2,3c-7.1,1.6-14.2,1.6-21.3,0
		c-2.7-0.6-5.4-1.6-7.5-3.6c-0.9-0.9-1.5-1.8-1.4-3.1C14.8,55.9,14.7,54.6,14.7,53.1z"/>
	<path class="st1" d="M53.4,83.7c2.2-1.5,3.7-3.3,3.8-5.9c2.6,0.2,5,0.4,7.5,0.5c4.9,0.1,9.9-0.4,14.5-2.2c1.8-0.7,3.4-1.7,5.2-2.6
		c0.1-0.1,0.3-0.2,0.4-0.3c0,1.7,0.2,3.4-0.1,5C84.5,80,83,81,81.5,81.8c-2.9,1.5-6,2.4-9.3,2.8c-6.1,0.9-12.1,0.8-18.1-0.8
		C53.9,83.8,53.8,83.8,53.4,83.7z"/>
	<path class="st1" d="M57.4,74.6c-0.3-1.5-0.5-2.9-0.7-4.3c0-0.3,0.2-0.6,0.2-1c0.1-0.5,0.2-1,0.3-1.6c0.7,0.1,1.5,0.1,2.2,0.2
		c6.9,0.6,13.8,0.3,20.4-2.1c1.7-0.6,3.3-1.6,5-2.4c0,0,0,0.2,0,0.4c0,0.9-0.1,1.8,0,2.7c0.2,2.1-0.9,3.5-2.5,4.6
		c-2.5,1.8-5.4,2.6-8.3,3.2c-5.4,1.1-10.8,1.1-16.2,0.3C57.7,74.7,57.5,74.6,57.4,74.6z"/>
	<path class="st1" d="M84.8,52.9c0,1.7,0.2,3.4-0.1,5c-0.3,1.7-1.7,2.7-3.2,3.5c-2.6,1.5-5.4,2.2-8.2,2.7c-5.1,0.9-10.3,1-15.5,0.3
		c-0.2,0-0.4-0.1-0.7-0.2c0-0.8,0.2-1.7,0-2.4c-0.4-1.4-0.3-2.7,0.1-4c0-0.1,0-0.1,0-0.2C66.9,58.8,76.3,58.5,84.8,52.9z"/>
</g>
</svg>
