<?xml version="1.0" encoding="utf-8"?>
<!-- Generator: Adobe Illustrator 26.3.1, SVG Export Plug-In . SVG Version: 6.00 Build 0)  -->
<svg version="1.1" id="Layer_1" xmlns="http://www.w3.org/2000/svg" xmlns:xlink="http://www.w3.org/1999/xlink" x="0px" y="0px"
	 viewBox="0 0 100 100" style="enable-background:new 0 0 100 100;" xml:space="preserve">
<style type="text/css">
	.st0{fill:#D2D2D2;}
</style>
<path class="st0" d="M49.8,16.2c1.4,0,2.8-0.1,4.2,0c2.9,0.3,4.9,2.5,5,5.5c0,1.3,0,2.6,0,3.9c-0.1,3.9,4.2,6.4,7.5,4.3
	c1.2-0.8,2.4-1.5,3.7-2.1c2.5-1.2,5.5-0.5,7,1.9c1.5,2.3,2.8,4.7,4.1,7.1c1.2,2.3,0.3,5.2-1.8,6.6c-1.2,0.8-2.3,1.5-3.6,2.1
	c-3.8,1.9-3.8,7.2,0,9c1,0.5,2,1.1,3,1.7c2.8,1.7,3.7,4.8,2.1,7.7c-1.1,2.1-2.3,4.1-3.5,6.1c-1.7,2.8-4.8,3.6-7.7,2
	c-1.1-0.6-2.2-1.3-3.3-1.9c-3.5-2-7.4,0.3-7.5,4.3c0,1.2,0,2.3,0,3.5c0,3.4-1.9,5.7-5.2,5.9c-2.7,0.2-5.4,0.1-8.1,0
	c-2.9-0.2-4.9-2.5-5-5.5c0-1.2,0-2.5,0-3.7c0-4.2-3.9-6.5-7.6-4.4c-1.2,0.7-2.4,1.5-3.7,2.1c-2.5,1.2-5.4,0.4-6.8-1.9
	c-1.4-2.2-2.7-4.5-3.9-6.8c-1.5-2.8-0.5-5.7,2.2-7.4c1.1-0.6,2.2-1.2,3.2-1.9c3.5-2.1,3.5-6.6,0-8.7c-1-0.6-2.1-1.2-3.1-1.8
	c-3-1.8-3.9-4.9-2.1-7.9c1.1-2,2.2-3.9,3.4-5.9c1.7-2.9,4.9-3.7,7.8-2.1c1.1,0.6,2.3,1.3,3.4,2c3.3,1.8,7.2-0.4,7.3-4.2
	c0-1.3,0-2.5,0-3.8c0-3.5,2.3-5.9,5.9-5.9C47.7,16.1,48.7,16.1,49.8,16.2C49.8,16.1,49.8,16.2,49.8,16.2z M49.2,61.8
	c5.9,0.5,11.7-4.3,12.4-10.2C62.4,44.2,57,39,51.4,38.3c-7-0.8-12.5,4.3-13.2,10.2C37.2,55.6,42.7,61.6,49.2,61.8z"/>
</svg>
